<?xml version="1.0" standalone="no"?><!DOCTYPE svg PUBLIC "-//W3C//DTD SVG 1.1//EN" "http://www.w3.org/Graphics/SVG/1.1/DTD/svg11.dtd"><svg t="1685437206626" class="icon" viewBox="0 0 1024 1024" version="1.1" xmlns="http://www.w3.org/2000/svg" p-id="1080" xmlns:xlink="http://www.w3.org/1999/xlink" width="200" height="200"><path d="M898.077922 69.818182c23.475532 0 45.990234 9.209351 62.596987 25.603324C977.271688 111.818805 986.597403 134.054234 986.597403 157.243844v553.668156c0 23.186286-9.325714 45.421714-25.922494 61.815688-16.606753 16.390649-39.121455 25.6-62.598649 25.6H130.912416c-23.478857 0-45.993558-9.209351-62.59865-25.6C51.715325 756.333714 42.38961 734.098286 42.38961 710.912V157.240519c0-23.186286 9.325714-45.423377 25.924156-61.822337C84.918857 79.027532 107.433558 69.818182 130.912416 69.818182h767.163844zM112.759688 725.961143h800.415585V138.343065h-800.415585v587.61974zM219.428571 955.844156h590.129871v-98.446961h-590.129871V955.844156z" fill="#86BC9F" p-id="1081"></path><path d="M133.818182 570.181818h738.077922a14.961039 14.961039 0 0 1 14.961039 14.961039v123.012987H118.857143v-123.012987a14.961039 14.961039 0 0 1 14.961039-14.961039z" fill="#FFDEBB" p-id="1082"></path><path d="M788.749299 266.003948v233.001558h-88.925091v-83.708675l-165.791585 162.897455-104.787117-102.986805L261.523948 640 198.649351 578.194286l230.566233-226.533403 104.817039 102.955221 103.064935-101.264623h-85.455792V265.974026H788.779221z" fill="#86BC9F" p-id="1083"></path></svg>